<svg width="32" height="16" viewBox="0 0 32 16" fill="none" xmlns="http://www.w3.org/2000/svg">
<path fill-rule="evenodd" clip-rule="evenodd" d="M28.7957 2.71079C26.7676 1.15879 23.8271 0 20.2665 0C14.9658 0 10.5049 2.02861 7.69027 4.0257C6.74092 2.71224 4.68151 1.8783 3.383 1.4497C1.94369 0.974545 0.360018 1.61552 0.166593 2.65309C0.0592133 3.22812 -0.0325216 3.98012 0.011568 4.74764C0.0556577 5.50497 0.236283 6.33842 0.735491 7.04C0.972215 7.37852 1.25784 7.70011 1.58813 8C1.258 8.29996 0.972385 8.62154 0.735491 8.96C0.236283 9.66158 0.0556577 10.495 0.011568 11.2519C-0.0332327 12.0199 0.0592133 12.7719 0.166593 13.3469C0.360018 14.3845 1.9444 15.0259 3.383 14.5508C4.68151 14.1217 6.74163 13.2878 7.69027 11.9743C10.5049 13.9719 14.9651 16 20.2665 16C23.8278 16 26.7683 14.8412 28.7964 13.2887C30.8082 11.7484 32 9.76388 32 8C32 6.23661 30.8089 4.25115 28.7957 2.71079Z" fill="#FF9C46"/>
<path fill-rule="evenodd" clip-rule="evenodd" d="M18.9239 2.92412C19.09 2.77071 19.3378 2.66791 19.614 2.63786C19.8902 2.60781 20.1726 2.65292 20.4005 2.76347C20.6284 2.87402 20.7835 3.04117 20.8323 3.22892C20.8812 3.41667 20.82 3.61 20.6619 3.76728C19.6329 4.75394 19.054 6.33649 19.054 8C19.054 9.66449 19.6329 11.2465 20.6619 12.2332C20.82 12.3905 20.8812 12.5838 20.8323 12.7716C20.7835 12.9593 20.6284 13.1265 20.4005 13.237C20.1726 13.3476 19.8902 13.3927 19.614 13.3626C19.3378 13.3326 19.09 13.2298 18.9239 13.0764C17.5457 11.7556 16.9207 9.83709 16.9207 8C16.9207 6.1634 17.5457 4.24485 18.9239 2.92412Z" fill="#5F86DD"/>
<path d="M12.1441 5.82884C12.1887 5.7383 12.2591 5.65464 12.3511 5.58264C12.4432 5.51064 12.5551 5.45171 12.6806 5.40921C12.8061 5.36671 12.9426 5.34147 13.0823 5.33494C13.2221 5.32841 13.3624 5.34071 13.4952 5.37115C13.628 5.40158 13.7507 5.44955 13.8563 5.51232C13.9619 5.57508 14.0483 5.65142 14.1107 5.73696C14.173 5.8225 14.21 5.91558 14.2196 6.01087C14.2292 6.10617 14.2111 6.20182 14.1665 6.29236C13.983 6.66472 13.8664 7.30375 13.8664 8C13.8664 8.69672 13.983 9.33575 14.1665 9.70763C14.2566 9.89049 14.2366 10.0903 14.1107 10.263C13.9848 10.4358 13.7634 10.5674 13.4952 10.6288C13.227 10.6903 12.934 10.6766 12.6806 10.5908C12.4272 10.5049 12.2342 10.354 12.1441 10.1711C11.8539 9.58206 11.733 8.76218 11.733 8C11.733 7.2383 11.8539 6.41842 12.1441 5.82884Z" fill="#5F86DD"/>
<path d="M24.5332 5.33333C24.2503 5.33333 23.979 5.40995 23.779 5.54634C23.5789 5.68273 23.4666 5.86772 23.4666 6.0606V6.54545C23.4666 6.73833 23.5789 6.92332 23.779 7.05971C23.979 7.1961 24.2503 7.27272 24.5332 7.27272C24.8161 7.27272 25.0875 7.1961 25.2875 7.05971C25.4875 6.92332 25.5999 6.73833 25.5999 6.54545V6.0606C25.5999 5.86772 25.4875 5.68273 25.2875 5.54634C25.0875 5.40995 24.8161 5.33333 24.5332 5.33333Z" fill="#5F86DD"/>
</svg>
